<?xml version="1.0" standalone="no"?>
<!DOCTYPE svg PUBLIC "-//W3C//DTD SVG 20010904//EN"
 "http://www.w3.org/TR/2001/REC-SVG-20010904/DTD/svg10.dtd">
<svg version="1.0" xmlns="http://www.w3.org/2000/svg"
 width="180.000000pt" height="180.000000pt" viewBox="0 0 180.000000 180.000000"
 preserveAspectRatio="xMidYMid meet">
<metadata>
Created by potrace 1.14, written by Peter Selinger 2001-2017
</metadata>
<g transform="translate(0.000000,180.000000) scale(0.100000,-0.100000)"
fill="#000000" stroke="none">
<path d="M762 1668 c-17 -17 -15 -45 3 -51 12 -5 12 -12 0 -52 -7 -26 -12 -56
-10 -67 6 -30 -3 -38 -30 -28 -14 5 -25 7 -25 4 0 -3 13 -9 28 -15 22 -8 28
-16 28 -42 0 -17 4 -51 8 -74 7 -36 5 -43 -13 -53 -12 -6 -21 -20 -21 -30 0
-11 -5 -20 -10 -20 -22 0 -137 -127 -156 -172 -10 -26 -29 -52 -41 -59 -32
-17 -45 -83 -21 -107 7 -7 13 -47 14 -94 3 -123 52 -221 132 -262 26 -13 32
-23 33 -49 0 -17 2 -86 3 -152 1 -66 6 -127 10 -137 12 -26 65 -47 113 -44 29
2 43 -1 43 -10 0 -12 -17 -28 -30 -29 -3 0 -19 -6 -37 -13 -30 -13 -48 -41
-58 -90 l-4 -22 255 0 255 0 -7 23 c-15 49 -36 78 -67 92 -35 15 -88 29 -99
27 -5 -1 -8 7 -8 18 0 11 -3 20 -7 20 -5 0 -8 30 -9 68 0 79 -11 182 -23 234
-11 46 -5 53 72 99 78 45 142 115 158 170 15 54 20 216 9 284 -21 129 -81 220
-163 244 -23 7 -51 17 -62 21 -11 4 -53 7 -93 6 -41 -1 -76 2 -81 8 -5 6 -17
40 -26 75 -13 52 -14 66 -3 72 7 5 16 9 21 9 4 0 7 5 7 12 0 9 -3 9 -12 0 -20
-20 -35 -14 -35 13 0 27 15 32 36 13 11 -11 13 -10 9 2 -3 8 -14 16 -25 18
-32 5 -36 56 -6 82 27 23 28 33 7 54 -18 19 -45 21 -62 4z"/>
<path d="M709 1503 c-13 -17 -13 -17 6 -3 11 8 22 16 24 17 2 2 0 3 -6 3 -6 0
-17 -8 -24 -17z"/>
</g>
</svg>
